<?xml version="1.0" encoding="UTF-8" standalone="no"?>
<!-- Created with Inkscape (http://www.inkscape.org/) -->
<svg width="210mm" height="297mm" viewBox="0 0 210 297" version="1.1" id="svg1" xml:space="preserve" inkscape:version="1.4 (e7c3feb100, 2024-10-09)" sodipodi:docname="YORHA_clear.svg" xmlns:inkscape="http://www.inkscape.org/namespaces/inkscape" xmlns:sodipodi="http://sodipodi.sourceforge.net/DTD/sodipodi-0.dtd" xmlns="http://www.w3.org/2000/svg" xmlns:svg="http://www.w3.org/2000/svg"><sodipodi:namedview id="namedview1" pagecolor="#ffffff" bordercolor="#bab5a1" borderopacity="0.25" inkscape:showpageshadow="2" inkscape:pageopacity="0.0" inkscape:pagecheckerboard="0" inkscape:deskcolor="#d1d1d1" inkscape:document-units="mm" showguides="true" inkscape:zoom="0.35925762" inkscape:cx="304.7952" inkscape:cy="471.80627" inkscape:window-width="1240" inkscape:window-height="1020" inkscape:window-x="0" inkscape:window-y="0" inkscape:window-maximized="1" inkscape:current-layer="svg1"/><defs id="defs1"><inkscape:path-effect effect="fillet_chamfer" id="path-effect2" is_visible="true" lpeversion="1" nodesatellites_param="F,0,0,1,0,0,0,1 @ F,0,0,1,0,0.54014221,0,1 @ F,0,0,1,0,0,0,1" radius="0" unit="px" method="auto" mode="F" chamfer_steps="1" flexible="false" use_knot_distance="true" apply_no_radius="true" apply_with_radius="true" only_selected="false" hide_knots="false"/></defs><g inkscape:groupmode="layer" id="layer2-6" inkscape:label="Final" transform="translate(0.00279724,-0.08235771)" style="display:inline"><path id="path5" style="display:inline;fill:#bab5a1;fill-opacity:1;stroke:none;stroke-width:0.1;stroke-dasharray:none;stroke-opacity:1" d="m 95.079985,132.58209 c -2.580343,-0.0109 -5.932081,1.26379 -6.148643,3.46421 2.777788,0.86585 5.612383,0.89795 8.288812,4.38776 1.936407,3.07299 2.406784,5.9612 2.251294,8.87982 -0.0688,5.23057 -0.64279,9.66102 -4.890141,9.56738 -0.20017,2.01928 0.225783,3.79605 3.118673,4.61677 2.475,0.46215 3.98241,-0.84066 3.44733,1.88774 -0.42914,1.29882 -1.12861,2.43437 -2.874755,3.72019 -2.22923,0.2332 -2.108006,-0.9213 -3.383256,-0.22531 -1.28246,0.7463 -0.932114,3.6478 0.526066,3.50211 2.88673,0.34831 5.530375,1.68364 5.756755,3.53312 0.80779,5.74277 2.18428,7.51541 3.56567,9.63765 0.0631,0.0917 0.16067,0.0892 0.23823,0.003 1.3814,-2.12225 2.75788,-3.89437 3.56568,-9.63714 0.22638,-1.84948 2.87002,-3.18533 5.75675,-3.53364 1.45818,0.14569 1.80853,-2.75581 0.52607,-3.50211 -1.27525,-0.69599 -1.15403,0.45851 -3.38326,0.22531 -1.74614,-1.28582 -2.44562,-2.42137 -2.87476,-3.72019 -0.53508,-2.7284 0.97233,-1.42559 3.44733,-1.88774 2.89289,-0.82072 3.31936,-2.59749 3.11919,-4.61677 -4.64516,0.83793 -4.82185,-4.3368 -4.89065,-9.56737 -0.15549,-2.91862 0.41754,-5.85816 2.52077,-8.84132 3.74153,-4.11861 5.84467,-3.26475 8.27598,-4.29742 -0.2475,-2.51477 -4.92551,-3.98869 -7.43572,-3.50004 -3.86828,0.86464 -7.24336,4.84153 -7.28379,6.86366 -0.0344,2.08813 -0.48499,3.30371 -1.45314,3.4339 -0.98141,-0.1166 -1.43766,-1.3346 -1.47226,-3.43648 -0.0404,-1.28677 -3.415517,-5.99902 -7.283797,-6.86366 -0.313777,-0.0611 -0.661808,-0.0915 -1.030428,-0.093 z" sodipodi:nodetypes="scccccccccccccccccccccccccccss" transform="translate(-0.00279724,0.08235771)"/><path id="path4" style="display:inline;fill:#bab5a1;fill-opacity:1;stroke:none;stroke-width:0.1;stroke-dasharray:none;stroke-opacity:1" d="m 104.85251,47.189368 c -5.024563,10.976357 -6.567578,23.469306 -7.102404,43.109513 -0.167668,6.157211 -0.184549,13.609469 -0.163814,20.520199 -6.22e-4,-0.002 -8.79e-4,-0.003 -0.0016,-0.005 -0.38648,0.89141 -1.512867,0.89354 -1.979207,-0.0279 -0.424903,-10.24105 -2.294059,-19.448855 -3.890719,-22.000205 -1.512018,2.373457 -2.911669,9.77615 -3.596679,16.441895 -0.0153,0.98578 -0.05049,1.42454 0.332279,1.81332 1.724557,1.28679 3.469553,0.75862 5.620846,6.64559 0.308855,3.00104 -0.317144,7.56663 -1.382862,7.58455 -1.368162,-0.30407 -2.225731,-0.92023 -4.483964,-1.15807 -1.834774,-0.11891 -1.509173,1.082 -1.099157,3.11506 0.273587,1.35658 1.560865,3.25691 3.431315,4.28087 1.908358,0.87316 4.092913,-1.15158 5.547465,-4.92114 0.423367,-1.03004 1.377627,-0.93634 1.468127,0.032 0.0075,-0.0655 0.197921,7.33443 0.197921,7.33443 3.283403,1.47161 4.760943,2.82973 6.360333,4.9289 0.49055,0.64384 1.06527,0.68894 1.72651,0 2.14892,-2.23895 4.14218,-3.72007 6.41253,-5.26324 0,0 0.0446,-2.95928 0.0873,-6.86057 0.0132,0.12056 0.0209,0.21952 0.0351,0.34417 0.0905,-0.96838 0.47796,-0.9539 1.14877,0 1.79082,3.14144 4.04528,5.26152 5.95364,4.38836 1.77528,-1.34754 2.86352,-3.01854 3.43183,-4.28036 0.49583,-1.10088 0.20232,-3.03347 -1.09967,-3.11557 -1.30198,-0.0821 -3.50315,1.39229 -4.77955,1.43609 -0.88382,0.0303 -2.16746,-5.05418 -1.37666,-7.80986 2.60695,-5.9746 4.30835,-5.37594 5.91023,-6.69778 0.38277,-0.38878 0.34758,-0.82807 0.33228,-1.81385 -0.68501,-6.66572 -2.08466,-14.068431 -3.59668,-16.441888 -1.59666,2.55135 -3.3335,11.466618 -4.18321,22.028628 -0.46634,0.92147 -1.63131,0.83615 -1.6862,0 -0.0102,0.14795 -0.11345,-14.414397 -0.38344,-21.266401 -0.50969,-14.192962 -1.25084,-31.349261 -7.19078,-42.341601 z m 0.81701,7.299296 c 0.20038,-0.01855 0.41636,0.08192 0.47852,0.377238 5.09413,24.787349 3.10209,33.823196 4.10776,73.692138 -1.32091,0.75336 -2.58475,1.64406 -3.65145,2.72594 -0.55852,0.47895 -1.48963,0.59285 -1.44023,-0.44804 l 0.11938,-75.867719 c 4.7e-4,-0.299888 0.18564,-0.461004 0.38602,-0.479557 z" sodipodi:nodetypes="cscccccccccsccccsscccccsssccccccccscccccs" transform="translate(-0.00279724,0.08235771)"/><path id="path1-2" style="display:inline;fill:#bab5a1;fill-opacity:1;stroke:none;stroke-width:0.264583;stroke-opacity:1" d="m 76.588393,21.344109 c -8.666286,21.554031 -8.401596,57.483924 -9.251115,83.196991 7.341572,2.02288 9.310543,6.63577 9.310543,6.63577 0,0 1.376075,-4.45447 9.092985,-6.30556 C 85.152515,79.17568 84.898354,42.734623 76.588393,21.344109 Z m 0.551905,9.08265 c 0.1902,0.0075 0.397931,0.157351 0.467155,0.427364 4.022837,15.691329 6.355607,41.586433 5.967594,71.525347 -2.156973,1.2823 -4.00076,2.90625 -5.903516,4.46588 -0.558518,0.47895 -0.943422,0.52464 -0.894002,-0.51625 V 30.854123 c 0,-0.299889 0.172569,-0.434833 0.362769,-0.427364 z"/><path id="path1-2-0" style="fill:#bab5a1;fill-opacity:1;stroke:none;stroke-width:0.264583;stroke-opacity:1" d="m 133.50612,21.583608 c -8.66629,21.554031 -8.4016,57.483924 -9.25112,83.196992 7.34158,2.02288 9.31055,6.63577 9.31055,6.63577 0,0 1.37607,-4.45447 9.09298,-6.30556 -0.58829,-25.695631 -0.84245,-62.136688 -9.15241,-83.527202 z m 0.5519,9.08265 c 0.1902,0.0075 0.39794,0.157351 0.46716,0.427364 4.02284,15.691329 6.35561,41.586433 5.96759,71.525348 -2.15697,1.2823 -4.00076,2.90625 -5.90351,4.46588 -0.55852,0.47895 -0.94342,0.52464 -0.894,-0.51625 V 31.093622 c 0,-0.299889 0.17256,-0.434833 0.36276,-0.427364 z"/><path id="path2" style="display:inline;fill:#bab5a1;fill-opacity:1;stroke:none;stroke-width:0.1;stroke-opacity:1" d="m 84.377279,108.53601 c -1.858524,0.0408 -3.786836,1.19991 -5.878195,4.96611 -0.624914,1.63998 -0.601964,4.63237 -2.048453,4.58576 -1.555201,-0.0226 -1.188505,-2.97202 -1.906861,-4.53615 -2.407259,-5.53199 -4.891616,-5.33888 -8.130253,-4.5372 -0.884604,0.28105 -4.709192,0.83968 -5.464782,7.0156 -0.03707,1.22861 -0.05107,1.67139 0.553971,1.66139 1.081827,-0.0161 1.623154,-0.63947 4.541325,-0.23512 3.319149,0.50574 5.924826,3.57795 6.986653,7.01714 0.224924,1.12316 -2.810261,2.78279 -3.057177,3.82199 0.778816,5.24871 0.703812,10.00606 10.82983,20.63957 -1.001687,2.5171 -3.76949,2.71609 -6.548955,9.36221 -0.812322,1.40418 0.245944,7.0992 5.735568,7.46828 1.066496,0.10774 4.933391,-1.36513 4.256071,-2.44584 -2.319526,-3.46466 -1.424222,-8.20131 0.02635,-10.17199 0.798246,-1.0021 1.436009,-0.61953 2.319239,-0.15296 2.468546,1.4889 4.939526,2.80936 7.366992,3.26285 0.739057,0.15281 1.530044,0.3475 1.937349,-0.9431 l 0.899687,-3.27163 c -5.541886,-2.68983 -16.712503,-6.24118 -21.120675,-20.86126 -0.57486,-1.48326 2.251115,-2.2965 2.78536,-0.13436 3.407153,10.45889 12.791084,16.15305 17.307988,17.38498 0.651892,0.19901 0.744672,-0.14599 0.764811,-0.68833 -0.06428,-1.48444 0.386738,-3.02817 -1.453141,-4.30774 -11.910041,-6.90695 -11.460599,-11.96595 -12.566675,-17.25735 -0.174976,-0.68841 -3.60263,-1.02323 -3.33313,-1.90686 1.442422,-3.83941 4.26831,-6.11816 6.186186,-6.56084 2.744112,-0.5349 4.678544,-0.23727 5.760371,-0.22117 0.605037,0.01 0.59104,-0.43331 0.553972,-1.66192 -0.75559,-6.17592 -4.580179,-6.73402 -5.464783,-7.01507 -0.607427,-0.17968 -1.219139,-0.2906 -1.838647,-0.27699 z" sodipodi:nodetypes="ccccccccccccccccccccccccccccccc" transform="translate(-0.00279724,0.08235771)"/><path id="path2-2" style="display:inline;fill:#bab5a1;fill-opacity:1;stroke:none;stroke-width:0.1;stroke-opacity:1" d="m 125.46677,108.72482 c 1.85852,0.0408 3.78684,1.19991 5.8782,4.96611 0.62491,1.63998 0.60196,4.63237 2.04845,4.58576 1.5552,-0.0226 1.1885,-2.97202 1.90686,-4.53615 2.40726,-5.53199 4.89162,-5.33888 8.13025,-4.5372 0.88461,0.28105 4.7092,0.83968 5.46479,7.0156 0.0371,1.22861 0.0511,1.67139 -0.55397,1.66139 -1.08183,-0.0161 -1.62316,-0.63947 -4.54133,-0.23512 -3.31915,0.50574 -5.92483,3.57795 -6.98665,7.01714 -0.22493,1.12316 2.81026,2.78279 3.05717,3.82199 -0.77881,5.24871 -0.70381,10.00606 -10.82983,20.63957 1.00169,2.5171 3.76949,2.71609 6.54896,9.36221 0.81232,1.40418 -0.24595,7.0992 -5.73557,7.46828 -1.0665,0.10774 -4.93339,-1.36513 -4.25607,-2.44584 2.31952,-3.46466 1.42422,-8.20131 -0.0263,-10.17199 -0.79825,-1.0021 -1.43601,-0.61953 -2.31924,-0.15296 -2.46855,1.4889 -4.93953,2.80936 -7.36699,3.26285 -0.73906,0.15281 -1.53005,0.3475 -1.93735,-0.9431 l -0.89969,-3.27163 c 5.54189,-2.68983 16.7125,-6.24118 21.12068,-20.86126 0.57486,-1.48326 -2.25112,-2.2965 -2.78536,-0.13436 -3.40716,10.45889 -12.79109,16.15305 -17.30799,17.38498 -0.6519,0.19901 -0.74468,-0.14599 -0.76481,-0.68833 0.0643,-1.48444 -0.38674,-3.02817 1.45314,-4.30774 11.91004,-6.90695 11.4606,-11.96595 12.56667,-17.25735 0.17498,-0.68841 3.60263,-1.02323 3.33313,-1.90686 -1.44242,-3.83941 -4.26831,-6.11816 -6.18618,-6.56084 -2.74411,-0.5349 -4.67855,-0.23727 -5.76037,-0.22117 -0.60504,0.01 -0.59104,-0.43331 -0.55398,-1.66192 0.75559,-6.17592 4.58018,-6.73402 5.46479,-7.01507 0.60742,-0.17968 1.21914,-0.2906 1.83864,-0.27699 z" sodipodi:nodetypes="ccccccccccccccccccccccccccccccc" transform="translate(-0.00279724,0.08235771)"/><path id="path8" style="display:inline;fill:#bab5a1;fill-opacity:1;stroke:none;stroke-width:0.1;stroke-opacity:1" d="m 55.129968,135.85631 5.17e-4,5.1e-4 c -0.982025,-0.0155 -2.071325,0.0628 -3.27887,0.25425 -2.976172,0.41131 -3.346134,3.17829 -3.398759,5.22759 -0.06537,2.54557 1.370459,7.5153 1.370459,7.5153 0.792032,3.39965 1.448603,5.84805 1.333252,8.77001 -0.681666,5.20523 -2.548261,6.09375 -4.12843,8.02587 l 0.128158,5.07721 -30.429667,10.53217 c -1.361441,0.4712 -1.656743,-0.0714 -0.238746,-0.89038 l 28.591537,-16.51373 c 3.449636,-2.32344 4.447454,-6.31866 3.384806,-11.71866 -0.861072,-3.42984 -2.910529,-7.35206 -2.694409,-10.09551 0.04756,-0.46422 -0.71585,-0.29549 -0.949296,0.10336 -2.32553,3.97322 -1.01196,7.05627 0.366386,11.54089 0.719586,3.3348 -1.518147,4.18369 -4.95422,2.28048 C 29.00907,164.81656 17.899177,175.84588 6.6755615,185.95092 21.206477,181.53011 35.927725,177.21829 49.42179,172.20499 l 0.717785,-3.05097 0.237712,-0.42788 c 6.133485,-0.003 12.042836,2.23423 16.19436,10.5916 0.6111,1.33291 -1.760315,2.58624 -6.960299,3.56619 -5.76851,16.4525 -10.988578,33.2498 -16.146818,49.60059 11.39395,-12.75136 30.903793,-34.67044 34.181893,-38.254 0.31003,-0.49214 0.561796,-1.27232 -0.497644,-3.04632 -1.116492,-3.81302 -0.276293,-4.74737 0.304891,-4.98006 10.296578,-2.99546 13.283406,-0.64875 18.80402,3.07268 4.47809,3.23715 -1.861253,6.92403 -2.938838,8.28683 3.820327,18.35137 6.492371,36.44418 11.582758,55.07778 l 11.40395,-54.65972 c -2.06442,-2.74522 -7.27234,-4.89399 -2.87114,-8.50749 8.89021,-6.23253 14.39502,-4.55227 18.71204,-3.41219 0,0 3.30464,1.02204 0.50022,5.28185 -1.05944,1.774 -0.80767,2.55418 -0.49764,3.04632 3.2781,3.58356 22.78794,25.50315 34.18189,38.25451 -5.15824,-16.35079 -10.25221,-32.69127 -16.02072,-49.14377 -3.59201,-0.90074 -6.95853,-1.74761 -7.33341,-3.54965 l 0.0284,-0.0171 c 1.23212,-5.85768 9.80758,-11.01471 15.96957,-11.40292 1.2285,1.18722 1.26848,2.52221 1.2945,4.08657 13.49406,5.0133 28.21532,9.32564 42.74623,13.74645 -10.78501,-10.56452 -22.66769,-20.67488 -33.55713,-29.98525 -3.79113,2.07029 -5.86138,1.51372 -5.1418,-1.82108 1.37835,-4.48462 2.5686,-8.07032 0.35553,-12.10727 -0.20492,-0.37379 -0.50456,-0.41301 -0.57464,-0.0444 -0.0943,5.05795 -5.92213,14.03644 -0.81081,17.85886 0.61421,0.422 5.43614,-2.28734 6.92775,-0.786 l 21.29844,18.89084 c 1.52127,1.34932 0.17418,1.22339 -0.71262,0.76171 l -25.62169,-13.33924 c -11.13284,-5.86729 -5.13791,-14.70749 -3.70934,-23.99336 -0.14966,-3.06062 -0.65357,-4.86331 -3.62975,-5.27462 -1.20754,-0.1914 -2.28616,-0.27359 -3.25148,-0.26406 -4.18305,0.0413 -6.23779,1.7996 -7.42694,3.80442 -0.15237,0.29155 2.31674,2.00232 2.87941,3.55327 1.15455,2.81359 2.40631,5.94369 1.00459,10.65981 -1.8584,6.25265 -6.17032,11.17175 -8.5788,14.04462 -4.95391,6.4936 -3.52773,13.99865 -2.29753,14.57844 2.38012,1.12174 7.26829,2.14147 7.26829,2.14147 1.50432,0.44318 1.60764,0.62096 1.83916,1.41749 3.5266,10.94633 10.63748,32.16053 10.73578,32.47863 0.30508,0.98736 -0.63027,0.87664 -0.87437,0.48266 -2.77387,-3.70102 -4.72987,-7.28302 -6.90759,-11.02258 -3.12981,-5.73728 -11.89711,-17.74353 -15.35978,-26.25835 -1.00872,-4.21893 -0.29578,-9.96313 1.13533,-12.22664 3.18384,-4.44943 8.79651,-10.80906 10.35492,-14.79341 1.50914,-4.24499 0.57971,-10.82567 -1.92133,-11.79825 -2.26488,-0.52957 -7.36378,0.67665 -7.26364,2.56315 0.0645,1.21554 0.41241,4.17675 0.0894,4.80436 -0.52389,1.24547 -0.76738,2.94629 -1.57199,3.73621 -0.88556,0.7292 -0.35308,1.8574 -0.14831,2.31303 0,0 2.90397,4.76608 -2.15388,9.89294 -6.70331,4.75793 -12.3765,-0.93741 -12.3765,-0.93741 l -4.98833,2.18384 0.2868,3.82148 c 0.10686,1.42213 -1.33245,3.12709 -3.27525,3.39514 -1.39397,0.1306 -3.22474,0.23084 -3.85506,2.78743 -1.27278,6.59136 -4.99498,11.81605 -4.95835,12.13207 0.0883,0.76221 4.72083,5.38834 7.06313,7.27759 0.55656,0.44891 1.04568,0.51367 0.73432,2.01538 l -8.22068,39.64823 c -0.14448,0.69683 -0.83909,1.20442 -0.83509,0 l 0.15606,-47.42243 c -3.34622,-3.98256 -5.316243,-8.71664 -6.344833,-13.78727 -0.63032,-2.55659 -2.461096,-2.65683 -3.855062,-2.78743 -1.942804,-0.26805 -3.236799,-0.99022 -3.587895,-2.37246 l 0.414962,-4.74442 -4.803841,-2.28358 c 0,0 -5.672679,5.69534 -12.375989,0.93741 -5.057852,-5.12686 -2.154391,-9.89293 -2.154391,-9.89293 0.204771,-0.45563 0.737246,-1.58384 -0.148311,-2.31304 -0.804608,-0.78992 -1.047592,-2.49074 -1.57148,-3.73621 -0.323056,-0.62761 0.02436,-3.5883 0.08888,-4.80384 0.100141,-1.8865 -4.998245,-3.09272 -7.263122,-2.56315 -2.50104,0.97258 -3.430982,7.55326 -1.921847,11.79825 1.558413,3.98435 7.171086,10.34346 10.354924,14.79289 0.729574,1.13741 2.446862,6.70136 1.800406,12.30468 -0.942193,4.5763 -0.43974,5.30338 1.288811,9.69553 0.41217,0.95762 0.879683,1.41141 -0.694532,3.03237 l -25.393798,29.2468 c -0.739685,0.85193 -1.312593,0.73678 -0.631486,-0.5054 9.090242,-16.57847 21.114468,-33.66318 22.965006,-41.88013 0.568231,-4.47919 -0.254,-8.8209 -3.391524,-12.93358 -4.018625,-4.38044 -7.304614,-10.07681 -9.251115,-14.87351 -1.053218,-4.80597 -0.14996,-7.84622 1.00459,-10.65981 0.63205,-1.29325 3.324269,-3.15734 3.171899,-3.44889 -1.189139,-2.00482 -3.436597,-3.83183 -7.692037,-3.89898 z" sodipodi:nodetypes="cccscccccccccsccccccccccccccccccccccccccccccccccccccccccccccscccccccccccccccccscccccccccccccscccccccsccccccc" transform="translate(-0.00279724,0.08235771)"/></g></svg>
